<?xml version="1.0" encoding="UTF-8"?>
<!DOCTYPE svg PUBLIC "-//W3C//DTD SVG 1.1//EN" "http://www.w3.org/Graphics/SVG/1.1/DTD/svg11.dtd">
<svg xmlns="http://www.w3.org/2000/svg" version="1.1" width="417px" height="283px" style="shape-rendering:geometricPrecision; text-rendering:geometricPrecision; image-rendering:optimizeQuality; fill-rule:evenodd; clip-rule:evenodd" xmlns:xlink="http://www.w3.org/1999/xlink">
<g><path style="opacity:0.776" fill="#754cb4" d="M 192.5,39.5 C 236.449,35.2306 270.615,51.2306 295,87.5C 308.726,110.466 313.059,135.133 308,161.5C 296.755,206.078 268.589,232.911 223.5,242C 179.689,246.426 145.522,230.593 121,194.5C 107.274,171.534 102.941,146.867 108,120.5C 119.448,75.8822 147.615,48.8822 192.5,39.5 Z M 195.5,45.5 C 238.793,42.3922 271.293,59.3922 293,96.5C 312.564,140.961 305.064,180.127 270.5,214C 238.97,238.53 204.637,243.197 167.5,228C 136.544,212.61 118.377,187.777 113,153.5C 109.409,111.181 125.576,79.0144 161.5,57C 172.442,51.6311 183.775,47.7978 195.5,45.5 Z M 204.5,58.5 C 209.606,57.9253 214.106,59.2587 218,62.5C 219.435,70.3888 219.935,78.3888 219.5,86.5C 227.507,86.3336 235.507,86.5003 243.5,87C 231.667,99.5 219.833,112 208,124.5C 196.167,112 184.333,99.5 172.5,87C 180.493,86.5003 188.493,86.3336 196.5,86.5C 196.334,79.1591 196.5,71.8258 197,64.5C 198.707,61.4096 201.207,59.4096 204.5,58.5 Z"/></g>
<g><path style="opacity:0.931" fill="#754cb4" d="M 195.5,53.5 C 237.713,50.3475 268.546,67.3475 288,104.5C 293.608,116.197 295.941,128.197 295,140.5C 281.357,127.857 268.024,114.857 255,101.5C 250.984,105.348 247.151,109.348 243.5,113.5C 252.833,123.167 262.167,132.833 271.5,142.5C 229.167,143.833 186.833,143.833 144.5,142.5C 153.833,132.833 163.167,123.167 172.5,113.5C 168.849,109.348 165.016,105.348 161,101.5C 147.638,115.196 133.971,128.529 120,141.5C 121.891,101.283 141.391,73.45 178.5,58C 184.253,56.3137 189.919,54.8137 195.5,53.5 Z M 204.5,58.5 C 201.207,59.4096 198.707,61.4096 197,64.5C 196.5,71.8258 196.334,79.1591 196.5,86.5C 188.493,86.3336 180.493,86.5003 172.5,87C 184.333,99.5 196.167,112 208,124.5C 219.833,112 231.667,99.5 243.5,87C 235.507,86.5003 227.507,86.3336 219.5,86.5C 219.935,78.3888 219.435,70.3888 218,62.5C 214.106,59.2587 209.606,57.9253 204.5,58.5 Z"/></g>
<g><path style="opacity:0.837" fill="#754cb4" d="M 204.5,158.5 C 207.167,158.5 209.833,158.5 212.5,158.5C 212.5,160.833 212.5,163.167 212.5,165.5C 216.788,164.986 220.455,166.153 223.5,169C 222.391,171.047 221.724,173.213 221.5,175.5C 217.846,174.836 214.18,174.169 210.5,173.5C 208.05,173.761 205.717,174.428 203.5,175.5C 202.359,177.421 202.192,179.421 203,181.5C 208.386,184.224 213.886,186.724 219.5,189C 225.401,193.728 226.901,199.561 224,206.5C 221.042,210.145 217.375,212.812 213,214.5C 212.667,216.833 212.333,219.167 212,221.5C 209.619,222.435 207.119,222.768 204.5,222.5C 204.5,219.833 204.5,217.167 204.5,214.5C 199.699,214.65 195.033,213.984 190.5,212.5C 190.133,208.95 191.133,205.95 193.5,203.5C 199.318,206.499 205.318,206.999 211.5,205C 215.482,202.048 215.482,199.048 211.5,196C 205.933,194.217 200.599,191.883 195.5,189C 187.856,178.055 190.523,170.222 203.5,165.5C 204.474,163.257 204.808,160.924 204.5,158.5 Z"/></g>
</svg>
