<svg width="100" height="68" xmlns="http://www.w3.org/2000/svg" version="1.1">
 <g id="Layer_1">
  <title>Layer 1</title>
  <g stroke="null" id="svg_1">
   <g stroke="null" id="svg_13">
    <path stroke="null" id="svg_1" fill="#764cb4" data-old_color=" stroke:nonefill-rule:nonzero;rgb(0%,0%,0%);fill-opacity:1;" class="active-path" data-original="#000000" d="m40.56311,12.02875l0,1.4763l33.07761,0l0,4.81483l-47.28143,0l0,-4.81483l11.8445,0l0,-1.4763l-13.3208,0l0,43.94251l34.5539,0l0,-1.4763l-33.07761,0l0,-34.69878l47.28143,0l0,34.69878l-11.8445,0l0,1.4763l13.3208,0l0,-43.94251l-34.5539,0zm0,0"/>
    <path stroke="null" id="svg_2" fill="#764cb4" data-old_color=" stroke:nonefill-rule:nonzero;rgb(0%,0%,0%);fill-opacity:1;" class="active-path" data-original="#000000" d="m27.98045,15.1745l1.57288,0l0,1.4763l-1.57288,0l0,-1.4763zm0,0"/>
    <path stroke="null" id="svg_3" fill="#764cb4" data-old_color=" stroke:nonefill-rule:nonzero;rgb(0%,0%,0%);fill-opacity:1;" class="active-path" data-original="#000000" d="m70.44666,15.1745l1.57288,0l0,1.4763l-1.57288,0l0,-1.4763zm0,0"/>
    <path stroke="null" id="svg_4" fill="#764cb4" data-old_color=" stroke:nonefill-rule:nonzero;rgb(0%,0%,0%);fill-opacity:1;" class="active-path" data-original="#000000" d="m67.30129,15.1745l1.5725,0l0,1.4763l-1.5725,0l0,-1.4763zm0,0"/>
    <path stroke="null" id="svg_5" fill="#764cb4" data-old_color=" stroke:nonefill-rule:nonzero;rgb(0%,0%,0%);fill-opacity:1;" class="active-path" data-original="#000000" d="m64.15553,15.1745l1.57288,0l0,1.4763l-1.57288,0l0,-1.4763zm0,0"/>
    <path stroke="null" id="svg_6" fill="#764cb4" data-old_color=" stroke:nonefill-rule:nonzero;rgb(0%,0%,0%);fill-opacity:1;" class="active-path" data-original="#000000" d="m31.12621,15.1745l5.50469,0l0,1.4763l-5.50469,0l0,-1.4763zm0,0"/>
    <path stroke="null" id="svg_7" fill="#764cb4" data-old_color=" stroke:nonefill-rule:nonzero;rgb(0%,0%,0%);fill-opacity:1;" class="active-path" data-original="#000000" d="m28.02874,52.82588l43.94251,0l0,-31.36024l-20.39837,0l0,1.4763l18.92208,0l0,28.40764l-40.98991,0l0,-28.40764l19.70852,0l0,-1.4763l-21.18481,0l0,31.36024zm0,0"/>
    <path stroke="null" id="svg_8" fill="#764cb4" data-old_color=" stroke:nonefill-rule:nonzero;rgb(0%,0%,0%);fill-opacity:1;" class="active-path" data-original="#000000" d="m38.94194,45.00977l-1.4763,0l0,4.67035l4.67035,0l0,-1.4763l-2.15045,0l21.07252,-21.07252l0,2.15045l1.4763,0l0,-4.67035l-4.67035,0l0,1.4763l2.15006,0l-21.07214,21.07214l0,-2.15006zm0,0"/>
    <path stroke="null" id="svg_9" fill="#764cb4" data-old_color=" stroke:nonefill-rule:nonzero;rgb(0%,0%,0%);fill-opacity:1;" class="active-path" data-original="#000000" d="m31.12621,24.6114l1.5725,0l0,1.4763l-1.5725,0l0,-1.4763zm0,0"/>
    <path stroke="null" id="svg_10" fill="#764cb4" data-old_color=" stroke:nonefill-rule:nonzero;rgb(0%,0%,0%);fill-opacity:1;" class="active-path" data-original="#000000" d="m34.27159,24.6114l1.57288,0l0,1.4763l-1.57288,0l0,-1.4763zm0,0"/>
    <path stroke="null" id="svg_11" fill="#764cb4" data-old_color=" stroke:nonefill-rule:nonzero;rgb(0%,0%,0%);fill-opacity:1;" class="active-path" data-original="#000000" d="m37.41735,24.6114l1.57288,0l0,1.4763l-1.57288,0l0,-1.4763zm0,0"/>
    <path stroke="null" id="svg_12" fill="#764cb4" data-old_color=" stroke:nonefill-rule:nonzero;rgb(0%,0%,0%);fill-opacity:1;" class="active-path" data-original="#000000" d="m67.34919,46.58265l0,1.62117l-2.40723,0l0,1.4763l3.88352,0l0,-3.09747l-1.4763,0zm0,0"/>
   </g>
  </g>
 </g>
</svg>