<svg width="100" height="68" xmlns="http://www.w3.org/2000/svg" xml:space="preserve" version="1.1">

 <g>
  <title>Layer 1</title>
  <g stroke="null" id="svg_1">
   <g stroke="null" id="svg_2">
    <g stroke="null" id="svg_3">
     <path stroke="null" fill="#764cb4" id="svg_4" d="m74.96415,13.83964l-49.92829,0c-0.572,0 -1.03586,0.46375 -1.03586,1.03586l0,38.24901c0,0.5721 0.46386,1.03586 1.03586,1.03586l49.92829,0c0.572,0 1.03586,-0.46375 1.03586,-1.03586l0,-38.24901c0,-0.5721 -0.46386,-1.03586 -1.03586,-1.03586zm-38.48208,38.24901l-10.41036,0l0,-5.58285l10.41036,0l0,5.58285zm0,-7.65467l-10.41036,0l0,-5.58285l10.41036,0l0,5.58285zm0,-7.65457l-10.41036,0l0,-5.58285l10.41036,0l0,5.58285zm0,-7.65467l-10.41036,0l0,-5.55882l10.41036,0l0,5.55882zm12.48207,22.96391l-10.41036,0l0,-5.58285l10.41036,0l0,5.58285zm0,-7.65467l-10.41036,0l0,-5.58285l10.41036,0l0,5.58285zm0,-7.65457l-10.41036,0l0,-5.58285l10.41036,0l0,5.58285zm0,-7.65467l-10.41036,0l0,-5.55882l10.41036,0l0,5.55882zm12.48207,22.96391l-10.41036,0l0,-5.58285l10.41036,0l0,5.58285zm0,-7.65467l-10.41036,0l0,-5.58285l10.41036,0l0,5.58285zm0,-7.65457l-10.41036,0l0,-5.58285l10.41036,0l0,5.58285zm0,-7.65467l-10.41036,0l0,-5.55882l10.41036,0l0,5.55882zm12.48207,22.96391l-10.41036,0l0,-5.58285l10.41036,0l0,5.58285zm0,-7.65467l-10.41036,0l0,-5.58285l10.41036,0l0,5.58285zm0,-7.65457l-10.41036,0l0,-5.58285l10.41036,0l0,5.58285zm0,-7.65457l-10.41036,0l0,-5.55882l10.41036,0l0,5.55882zm0,-7.65467l-47.85658,0l0,-5.55882l47.85658,0l0,5.55882z"/>
     <path stroke="null" fill="#764cb4" id="svg_5" d="m45.6494,19.1484l19.88845,0c0.572,0 1.03586,-0.46375 1.03586,-1.03586s-0.46386,-1.03586 -1.03586,-1.03586l-19.88845,0c-0.572,0 -1.03586,0.46375 -1.03586,1.03586s0.46386,1.03586 1.03586,1.03586z"/>
     <path stroke="null" fill="#764cb4" id="svg_6" d="m69.16335,19.1484l2.27888,0c0.572,0 1.03586,-0.46375 1.03586,-1.03586s-0.46386,-1.03586 -1.03586,-1.03586l-2.27888,0c-0.572,0 -1.03586,0.46375 -1.03586,1.03586s0.46386,1.03586 1.03586,1.03586z"/>
    </g>
   </g>
  </g>
  <g id="svg_7"/>
  <g id="svg_8"/>
  <g id="svg_9"/>
  <g id="svg_10"/>
  <g id="svg_11"/>
  <g id="svg_12"/>
  <g id="svg_13"/>
  <g id="svg_14"/>
  <g id="svg_15"/>
  <g id="svg_16"/>
  <g id="svg_17"/>
  <g id="svg_18"/>
  <g id="svg_19"/>
  <g id="svg_20"/>
  <g id="svg_21"/>
 </g>
</svg>